<svg id="visual" viewBox="0 0 900 300" width="900" height="300" xmlns="http://www.w3.org/2000/svg" xmlns:xlink="http://www.w3.org/1999/xlink" version="1.1"><rect x="0" y="0" width="900" height="300" fill="#118CFF"></rect><path d="M0 230L21.5 229.5C43 229 86 228 128.8 229.5C171.7 231 214.3 235 257.2 227.3C300 219.7 343 200.3 385.8 187.2C428.7 174 471.3 167 514.2 170.2C557 173.3 600 186.7 642.8 193.7C685.7 200.7 728.3 201.3 771.2 207.2C814 213 857 224 878.5 229.5L900 235L900 301L878.5 301C857 301 814 301 771.2 301C728.3 301 685.7 301 642.8 301C600 301 557 301 514.2 301C471.3 301 428.7 301 385.8 301C343 301 300 301 257.2 301C214.3 301 171.7 301 128.8 301C86 301 43 301 21.5 301L0 301Z" fill="#0459ae"></path><path d="M0 203L21.5 202.2C43 201.3 86 199.7 128.8 201.5C171.7 203.3 214.3 208.7 257.2 215.5C300 222.3 343 230.7 385.8 232.3C428.7 234 471.3 229 514.2 227.8C557 226.7 600 229.3 642.8 224.8C685.7 220.3 728.3 208.7 771.2 209.3C814 210 857 223 878.5 229.5L900 236L900 301L878.5 301C857 301 814 301 771.2 301C728.3 301 685.7 301 642.8 301C600 301 557 301 514.2 301C471.3 301 428.7 301 385.8 301C343 301 300 301 257.2 301C214.3 301 171.7 301 128.8 301C86 301 43 301 21.5 301L0 301Z" fill="#003669"></path><path d="M0 241L21.5 245.8C43 250.7 86 260.3 128.8 261.7C171.7 263 214.3 256 257.2 250.2C300 244.3 343 239.7 385.8 241.3C428.7 243 471.3 251 514.2 257.8C557 264.7 600 270.3 642.8 266.2C685.7 262 728.3 248 771.2 242.3C814 236.7 857 239.3 878.5 240.7L900 242L900 301L878.5 301C857 301 814 301 771.2 301C728.3 301 685.7 301 642.8 301C600 301 557 301 514.2 301C471.3 301 428.7 301 385.8 301C343 301 300 301 257.2 301C214.3 301 171.7 301 128.8 301C86 301 43 301 21.5 301L0 301Z" fill="#00152a"></path></svg>